<?xml version="1.0" encoding="UTF-8"?>
<svg xmlns="http://www.w3.org/2000/svg" xmlns:xlink="http://www.w3.org/1999/xlink" viewBox="0 0 64 64" width="64px" height="64px">
<defs>
<linearGradient id="linear0" gradientUnits="userSpaceOnUse" x1="86.247253" y1="20.87113" x2="86.247253" y2="153.364883" gradientTransform="matrix(0.372093,0,0,0.372093,0,0)">
<stop offset="0" style="stop-color:rgb(0%,77.64706%,100%);stop-opacity:1;"/>
<stop offset="1" style="stop-color:rgb(0%,44.705883%,100%);stop-opacity:1;"/>
</linearGradient>
<linearGradient id="linear1" gradientUnits="userSpaceOnUse" x1="86.002693" y1="20.87113" x2="86.002693" y2="153.364883" gradientTransform="matrix(0.372093,0,0,0.372093,0,0)">
<stop offset="0" style="stop-color:rgb(0%,77.64706%,100%);stop-opacity:1;"/>
<stop offset="1" style="stop-color:rgb(0%,44.705883%,100%);stop-opacity:1;"/>
</linearGradient>
<linearGradient id="linear2" gradientUnits="userSpaceOnUse" x1="85.986557" y1="52.607811" x2="85.986557" y2="109.182381" gradientTransform="matrix(0.372093,0,0,0.372093,0,0)">
<stop offset="0" style="stop-color:rgb(43.921569%,87.450981%,100%);stop-opacity:1;"/>
<stop offset="1" style="stop-color:rgb(43.921569%,68.627453%,100%);stop-opacity:1;"/>
</linearGradient>
</defs>
<g id="surface3398321">
<path style=" stroke:none;fill-rule:nonzero;fill:url(#linear0);" d="M 53.316406 8.324219 C 53.128906 8.117188 52.859375 8 52.578125 8 L 13.605469 8 C 12.765625 8 11.960938 8.355469 11.390625 8.976562 C 10.824219 9.59375 10.542969 10.429688 10.617188 11.265625 L 13.933594 48.878906 C 14.042969 50.105469 14.914062 51.15625 16.101562 51.496094 L 31.175781 55.804688 C 31.445312 55.882812 31.722656 55.921875 32 55.921875 C 32.277344 55.921875 32.554688 55.882812 32.824219 55.804688 L 47.898438 51.496094 C 49.085938 51.15625 49.953125 50.105469 50.0625 48.875 L 53.574219 9.089844 C 53.601562 8.808594 53.507812 8.53125 53.316406 8.324219 Z M 48.070312 48.699219 C 48.035156 49.117188 47.753906 49.460938 47.351562 49.574219 L 32.273438 53.882812 C 32.09375 53.933594 31.902344 53.933594 31.722656 53.882812 L 16.648438 49.574219 C 16.246094 49.460938 15.964844 49.117188 15.925781 48.699219 L 12.609375 11.089844 C 12.585938 10.804688 12.675781 10.535156 12.867188 10.324219 C 13.058594 10.113281 13.320312 10 13.605469 10 L 51.488281 10 Z M 48.070312 48.699219 "/>
<path style=" stroke:none;fill-rule:nonzero;fill:url(#linear1);" d="M 18.519531 48.027344 L 31.726562 51.800781 C 31.816406 51.824219 31.90625 51.839844 32 51.839844 C 32.09375 51.839844 32.183594 51.824219 32.273438 51.800781 L 45.480469 48.027344 C 45.878906 47.914062 46.164062 47.566406 46.199219 47.152344 L 49.207031 13.089844 C 49.230469 12.808594 49.136719 12.53125 48.949219 12.324219 C 48.757812 12.117188 48.492188 12 48.210938 12 L 15.789062 12 C 15.511719 12 15.242188 12.117188 15.054688 12.324219 C 14.863281 12.53125 14.769531 12.808594 14.792969 13.089844 L 17.800781 47.152344 C 17.835938 47.566406 18.121094 47.914062 18.519531 48.027344 Z M 47.117188 14 L 44.269531 46.292969 L 32 49.800781 L 19.730469 46.292969 L 16.882812 14 Z M 47.117188 14 "/>
<path style=" stroke:none;fill-rule:nonzero;fill:url(#linear2);" d="M 41.660156 23.539062 L 41.90625 20.539062 C 41.929688 20.25 41.699219 20 41.40625 20 L 22.582031 20 C 22.292969 20 22.066406 20.242188 22.085938 20.53125 L 22.78125 31.53125 C 22.796875 31.796875 23.015625 32 23.28125 32 L 36.195312 32 C 36.484375 32 36.714844 32.246094 36.695312 32.53125 L 36.425781 36.59375 C 36.414062 36.796875 36.28125 36.96875 36.089844 37.035156 L 32.109375 38.394531 C 32.003906 38.429688 31.890625 38.429688 31.785156 38.394531 L 27.800781 37.03125 C 27.609375 36.96875 27.476562 36.796875 27.464844 36.597656 L 27.304688 34.464844 C 27.285156 34.203125 27.066406 34 26.804688 34 L 23.457031 34 C 23.164062 34 22.9375 34.246094 22.957031 34.535156 L 23.332031 39.855469 C 23.34375 40.058594 23.480469 40.230469 23.671875 40.292969 L 31.789062 42.964844 C 31.890625 42.996094 32 42.996094 32.101562 42.964844 L 40.214844 40.296875 C 40.40625 40.230469 40.542969 40.054688 40.558594 39.851562 L 41.265625 28.53125 C 41.28125 28.242188 41.054688 28 40.765625 28 L 27.402344 28 C 27.144531 28 26.925781 27.800781 26.90625 27.539062 L 26.660156 24.539062 C 26.636719 24.25 26.867188 24 27.160156 24 L 41.164062 24 C 41.421875 24 41.640625 23.800781 41.660156 23.539062 Z M 41.660156 23.539062 "/>
</g>
</svg>
