<?xml version="1.0" encoding="UTF-8"?>
<svg xmlns="http://www.w3.org/2000/svg" xmlns:xlink="http://www.w3.org/1999/xlink" viewBox="0 0 64 64" width="64px" height="64px">
<g id="surface3399368">
<path style=" stroke:none;fill-rule:nonzero;fill:rgb(90.588236%,29.803923%,23.529412%);fill-opacity:1;" d="M 7.019531 4 C 5.230469 4 3.804688 5.589844 4.023438 7.367188 L 9.488281 52.609375 C 9.730469 54.613281 11.160156 56.277344 13.109375 56.832031 L 30.644531 61.808594 C 31.527344 62.058594 32.460938 62.066406 33.351562 61.824219 L 51.792969 56.828125 C 53.800781 56.285156 55.273438 54.558594 55.480469 52.492188 L 60.03125 7.304688 C 60.207031 5.546875 58.792969 4 57.027344 4 Z M 7.019531 6 L 57.027344 6 C 57.648438 6 58.101562 6.5 58.039062 7.105469 L 57.894531 8.542969 C 57.722656 8.195312 57.371094 7.980469 56.984375 7.988281 C 56.433594 7.996094 55.992188 8.449219 56 9 L 56 11 C 55.996094 11.371094 56.199219 11.71875 56.527344 11.894531 C 56.855469 12.070312 57.253906 12.050781 57.5625 11.839844 L 53.492188 52.289062 C 53.492188 52.292969 53.492188 52.292969 53.492188 52.292969 C 53.367188 53.535156 52.488281 54.566406 51.269531 54.898438 L 32.828125 59.894531 C 32.289062 60.039062 31.722656 60.035156 31.191406 59.886719 L 13.65625 54.90625 C 12.472656 54.570312 11.621094 53.574219 11.476562 52.371094 L 6.589844 11.925781 C 6.898438 12.066406 7.261719 12.035156 7.546875 11.847656 C 7.832031 11.664062 8.003906 11.34375 8 11 L 8 9 C 8.003906 8.730469 7.898438 8.46875 7.707031 8.277344 C 7.515625 8.085938 7.253906 7.980469 6.984375 7.988281 C 6.652344 7.992188 6.347656 8.160156 6.167969 8.4375 L 6.007812 7.125 C 5.933594 6.511719 6.386719 6 7.019531 6 Z M 11.984375 7.988281 C 11.433594 7.996094 10.992188 8.449219 11 9 L 11 11 C 10.996094 11.359375 11.183594 11.695312 11.496094 11.878906 C 11.808594 12.058594 12.191406 12.058594 12.503906 11.878906 C 12.816406 11.695312 13.003906 11.359375 13 11 L 13 9 C 13.003906 8.730469 12.898438 8.46875 12.707031 8.277344 C 12.515625 8.085938 12.253906 7.980469 11.984375 7.988281 Z M 16.984375 7.988281 C 16.433594 7.996094 15.992188 8.449219 16 9 L 16 11 C 15.996094 11.359375 16.183594 11.695312 16.496094 11.878906 C 16.808594 12.058594 17.191406 12.058594 17.503906 11.878906 C 17.816406 11.695312 18.003906 11.359375 18 11 L 18 9 C 18.003906 8.730469 17.898438 8.46875 17.707031 8.277344 C 17.515625 8.085938 17.253906 7.980469 16.984375 7.988281 Z M 21.984375 7.988281 C 21.433594 7.996094 20.992188 8.449219 21 9 L 21 11 C 20.996094 11.359375 21.183594 11.695312 21.496094 11.878906 C 21.808594 12.058594 22.191406 12.058594 22.503906 11.878906 C 22.816406 11.695312 23.003906 11.359375 23 11 L 23 9 C 23.003906 8.730469 22.898438 8.46875 22.707031 8.277344 C 22.515625 8.085938 22.253906 7.980469 21.984375 7.988281 Z M 26.984375 7.988281 C 26.433594 7.996094 25.992188 8.449219 26 9 L 26 11 C 25.996094 11.359375 26.183594 11.695312 26.496094 11.878906 C 26.808594 12.058594 27.191406 12.058594 27.503906 11.878906 C 27.816406 11.695312 28.003906 11.359375 28 11 L 28 9 C 28.003906 8.730469 27.898438 8.46875 27.707031 8.277344 C 27.515625 8.085938 27.253906 7.980469 26.984375 7.988281 Z M 31.984375 7.988281 C 31.433594 7.996094 30.992188 8.449219 31 9 L 31 11 C 30.996094 11.359375 31.183594 11.695312 31.496094 11.878906 C 31.808594 12.058594 32.191406 12.058594 32.503906 11.878906 C 32.816406 11.695312 33.003906 11.359375 33 11 L 33 9 C 33.003906 8.730469 32.898438 8.46875 32.707031 8.277344 C 32.515625 8.085938 32.253906 7.980469 31.984375 7.988281 Z M 36.984375 7.988281 C 36.433594 7.996094 35.992188 8.449219 36 9 L 36 11 C 35.996094 11.359375 36.183594 11.695312 36.496094 11.878906 C 36.808594 12.058594 37.191406 12.058594 37.503906 11.878906 C 37.816406 11.695312 38.003906 11.359375 38 11 L 38 9 C 38.003906 8.730469 37.898438 8.46875 37.707031 8.277344 C 37.515625 8.085938 37.253906 7.980469 36.984375 7.988281 Z M 41.984375 7.988281 C 41.433594 7.996094 40.992188 8.449219 41 9 L 41 11 C 40.996094 11.359375 41.183594 11.695312 41.496094 11.878906 C 41.808594 12.058594 42.191406 12.058594 42.503906 11.878906 C 42.816406 11.695312 43.003906 11.359375 43 11 L 43 9 C 43.003906 8.730469 42.898438 8.46875 42.707031 8.277344 C 42.515625 8.085938 42.253906 7.980469 41.984375 7.988281 Z M 46.984375 7.988281 C 46.433594 7.996094 45.992188 8.449219 46 9 L 46 11 C 45.996094 11.359375 46.183594 11.695312 46.496094 11.878906 C 46.808594 12.058594 47.191406 12.058594 47.503906 11.878906 C 47.816406 11.695312 48.003906 11.359375 48 11 L 48 9 C 48.003906 8.730469 47.898438 8.46875 47.707031 8.277344 C 47.515625 8.085938 47.253906 7.980469 46.984375 7.988281 Z M 51.984375 7.988281 C 51.433594 7.996094 50.992188 8.449219 51 9 L 51 11 C 50.996094 11.359375 51.183594 11.695312 51.496094 11.878906 C 51.808594 12.058594 52.191406 12.058594 52.503906 11.878906 C 52.816406 11.695312 53.003906 11.359375 53 11 L 53 9 C 53.003906 8.730469 52.898438 8.46875 52.707031 8.277344 C 52.515625 8.085938 52.253906 7.980469 51.984375 7.988281 Z M 17 16 C 15.789062 16 14.835938 17.117188 15.027344 18.3125 L 15.789062 23.15625 C 15.867188 23.640625 16.285156 24 16.777344 24 L 40.25 24 L 39.777344 28 L 25 28 C 24.449219 28 24 28.449219 24 29 L 24 35 C 24 35.550781 24.449219 36 25 36 L 38.832031 36 L 38.140625 41.859375 L 32.109375 43.699219 L 26.839844 41.914062 L 26.492188 39.691406 C 26.492188 39.6875 26.492188 39.6875 26.492188 39.6875 C 26.335938 38.722656 25.492188 38 24.515625 38 L 20.46875 38 C 19.257812 38 18.304688 39.117188 18.492188 40.3125 L 19.503906 46.75 C 19.617188 47.476562 20.128906 48.085938 20.832031 48.324219 L 31.382812 51.894531 C 31.382812 51.894531 31.382812 51.894531 31.386719 51.894531 C 31.585938 51.964844 31.800781 52 32.011719 52 C 32.207031 52 32.398438 51.972656 32.585938 51.914062 L 44.230469 48.367188 C 44.980469 48.136719 45.53125 47.480469 45.621094 46.695312 L 48.511719 22.234375 L 48.988281 18.214844 C 49.125 17.054688 48.1875 16 47.015625 16 Z M 17 18 L 47 18 L 46.527344 22 L 43.636719 46.453125 L 32.011719 49.996094 L 21.476562 46.429688 L 20.46875 40.003906 L 20.46875 40 L 24.515625 40 L 24.960938 42.820312 C 25.015625 43.1875 25.273438 43.492188 25.628906 43.613281 L 31.773438 45.695312 C 31.972656 45.761719 32.183594 45.765625 32.386719 45.703125 L 39.347656 43.582031 C 39.726562 43.464844 40.003906 43.136719 40.050781 42.742188 L 40.949219 35.117188 C 40.984375 34.832031 40.894531 34.546875 40.703125 34.335938 C 40.511719 34.121094 40.242188 34 39.957031 34 L 26 34 L 26 30 L 40.664062 30 C 41.171875 30 41.597656 29.621094 41.660156 29.117188 L 42.367188 23.117188 C 42.402344 22.832031 42.3125 22.546875 42.121094 22.335938 C 41.929688 22.121094 41.660156 22 41.375 22 L 17.632812 22 Z M 42.007812 52.257812 C 41.914062 52.261719 41.824219 52.273438 41.738281 52.296875 L 39.738281 52.839844 C 39.382812 52.925781 39.105469 53.195312 39.007812 53.546875 C 38.914062 53.898438 39.015625 54.273438 39.273438 54.527344 C 39.535156 54.78125 39.914062 54.875 40.261719 54.769531 L 42.261719 54.230469 C 42.75 54.101562 43.070312 53.632812 43.003906 53.132812 C 42.941406 52.628906 42.511719 52.257812 42.007812 52.257812 Z M 26.976562 53.53125 C 26.476562 53.539062 26.0625 53.914062 25.996094 54.40625 C 25.933594 54.902344 26.246094 55.367188 26.726562 55.496094 L 32.023438 57.003906 L 36.261719 55.855469 C 36.617188 55.769531 36.894531 55.496094 36.992188 55.144531 C 37.085938 54.796875 36.984375 54.417969 36.726562 54.164062 C 36.464844 53.910156 36.085938 53.820312 35.738281 53.925781 L 32.035156 54.929688 L 27.273438 53.574219 C 27.175781 53.546875 27.078125 53.53125 26.976562 53.535156 Z M 26.976562 53.53125 "/>
</g>
</svg>
